<svg xmlns="http://www.w3.org/2000/svg" xmlns:xlink="http://www.w3.org/1999/xlink" version="1.1" width="256" height="256" viewBox="0 0 256 256" xml:space="preserve">

<defs>
</defs>
<g style="stroke: none; stroke-width: 0; stroke-dasharray: none; stroke-linecap: butt; stroke-linejoin: miter; stroke-miterlimit: 10; fill: none; fill-rule: nonzero; opacity: 1;" transform="translate(1.4065934065934016 1.4065934065934016) scale(2.81 2.81)" >
	<circle cx="45" cy="45" r="45" style="stroke: none; stroke-width: 1; stroke-dasharray: none; stroke-linecap: butt; stroke-linejoin: miter; stroke-miterlimit: 10; fill: rgb(32,143,232); fill-rule: nonzero; opacity: 1;" transform="  matrix(1 0 0 1 0 0) "/>
	<path d="M 65.471 26.897 l -8.309 -8.31 c -0.092 -0.093 -0.194 -0.176 -0.303 -0.249 c -0.027 -0.018 -0.057 -0.029 -0.084 -0.046 c -0.084 -0.051 -0.168 -0.1 -0.259 -0.138 c -0.038 -0.016 -0.079 -0.023 -0.118 -0.037 c -0.084 -0.029 -0.166 -0.06 -0.255 -0.077 C 56.012 18.014 55.88 18 55.746 18 s -0.266 0.014 -0.395 0.04 c -0.088 0.018 -0.171 0.049 -0.255 0.077 c -0.039 0.014 -0.08 0.021 -0.118 0.037 c -0.091 0.038 -0.176 0.088 -0.259 0.138 c -0.027 0.016 -0.058 0.028 -0.084 0.046 c -0.109 0.073 -0.211 0.156 -0.303 0.249 l -8.31 8.31 c -0.781 0.781 -0.781 2.047 0 2.828 c 0.781 0.781 2.047 0.781 2.828 0 l 4.897 -4.897 V 70 c 0 1.104 0.896 2 2 2 s 2 -0.896 2 -2 V 24.829 l 4.896 4.897 c 0.391 0.391 0.902 0.586 1.414 0.586 s 1.023 -0.195 1.414 -0.586 C 66.252 28.945 66.252 27.679 65.471 26.897 z" style="stroke: none; stroke-width: 1; stroke-dasharray: none; stroke-linecap: butt; stroke-linejoin: miter; stroke-miterlimit: 10; fill: rgb(255,255,255); fill-rule: nonzero; opacity: 1;" transform=" matrix(1 0 0 1 0 0) " stroke-linecap="round" />
	<path d="M 41.152 60.274 l -4.897 4.897 V 20 c 0 -1.104 -0.896 -2 -2 -2 s -2 0.896 -2 2 v 45.172 l -4.897 -4.897 c -0.78 -0.781 -2.048 -0.781 -2.828 0 c -0.781 0.781 -0.781 2.047 0 2.828 l 8.31 8.31 c 0.093 0.093 0.196 0.177 0.306 0.25 c 0.049 0.033 0.103 0.056 0.155 0.084 c 0.063 0.034 0.123 0.072 0.19 0.1 c 0.066 0.027 0.135 0.043 0.203 0.063 c 0.057 0.017 0.112 0.039 0.171 0.051 C 33.992 71.986 34.123 72 34.254 72 s 0.262 -0.014 0.392 -0.039 c 0.059 -0.012 0.114 -0.034 0.171 -0.051 c 0.068 -0.02 0.137 -0.036 0.203 -0.063 c 0.066 -0.028 0.127 -0.065 0.19 -0.1 c 0.052 -0.028 0.105 -0.051 0.155 -0.084 c 0.11 -0.074 0.213 -0.157 0.306 -0.25 l 8.31 -8.31 c 0.781 -0.781 0.781 -2.047 0 -2.828 C 43.2 59.493 41.932 59.493 41.152 60.274 z" style="stroke: none; stroke-width: 1; stroke-dasharray: none; stroke-linecap: butt; stroke-linejoin: miter; stroke-miterlimit: 10; fill: rgb(255,255,255); fill-rule: nonzero; opacity: 1;" transform=" matrix(1 0 0 1 0 0) " stroke-linecap="round" />
</g>
</svg>